<svg width="28" height="27" viewBox="0 0 28 27" fill="none" xmlns="http://www.w3.org/2000/svg">
<path d="M23.2814 5.0625H4.7189C4.27135 5.0625 3.84213 5.24029 3.52566 5.55676C3.20919 5.87322 3.0314 6.30245 3.0314 6.75V23.625C3.02949 23.9466 3.12042 24.262 3.29328 24.5333C3.46614 24.8045 3.71358 25.0202 4.00593 25.1543C4.2293 25.2581 4.47258 25.3121 4.7189 25.3125C5.11503 25.3115 5.498 25.1702 5.79996 24.9138L5.80945 24.9064L9.25406 21.9375H23.2814C23.729 21.9375 24.1582 21.7597 24.4746 21.4432C24.7911 21.1268 24.9689 20.6976 24.9689 20.25V6.75C24.9689 6.30245 24.7911 5.87322 24.4746 5.55676C24.1582 5.24029 23.729 5.0625 23.2814 5.0625ZM23.2814 20.25H8.93765C8.73506 20.2501 8.53926 20.3231 8.38605 20.4557L4.7189 23.625V6.75H23.2814V20.25ZM9.7814 11.8125C9.7814 11.5887 9.8703 11.3741 10.0285 11.2159C10.1868 11.0576 10.4014 10.9688 10.6252 10.9688H17.3752C17.5989 10.9688 17.8135 11.0576 17.9718 11.2159C18.13 11.3741 18.2189 11.5887 18.2189 11.8125C18.2189 12.0363 18.13 12.2509 17.9718 12.4091C17.8135 12.5674 17.5989 12.6562 17.3752 12.6562H10.6252C10.4014 12.6562 10.1868 12.5674 10.0285 12.4091C9.8703 12.2509 9.7814 12.0363 9.7814 11.8125ZM9.7814 15.1875C9.7814 14.9637 9.8703 14.7491 10.0285 14.5909C10.1868 14.4326 10.4014 14.3438 10.6252 14.3438H17.3752C17.5989 14.3438 17.8135 14.4326 17.9718 14.5909C18.13 14.7491 18.2189 14.9637 18.2189 15.1875C18.2189 15.4113 18.13 15.6259 17.9718 15.7841C17.8135 15.9424 17.5989 16.0312 17.3752 16.0312H10.6252C10.4014 16.0312 10.1868 15.9424 10.0285 15.7841C9.8703 15.6259 9.7814 15.4113 9.7814 15.1875Z" fill="white"/>
</svg>
