<svg width="27" height="21" viewBox="0 0 27 21" fill="none" xmlns="http://www.w3.org/2000/svg">
<path fill-rule="evenodd" clip-rule="evenodd" d="M16.973 0.0769309C17.16 0.139136 17.3329 0.237567 17.4818 0.366599C17.6307 0.495632 17.7527 0.652738 17.8409 0.828942C17.9291 1.00515 17.9816 1.19699 17.9956 1.39353C18.0097 1.59006 17.9848 1.78743 17.9225 1.97436L11.9227 19.9737C11.797 20.3512 11.5265 20.6633 11.1707 20.8414C10.8148 21.0195 10.4028 21.0489 10.0253 20.9232C9.64779 20.7975 9.33566 20.5269 9.1576 20.1711C8.97955 19.8152 8.95013 19.4033 9.07584 19.0257L15.0756 1.0264C15.1378 0.83944 15.2363 0.666571 15.3653 0.517666C15.4943 0.368761 15.6514 0.246737 15.8276 0.158566C16.0038 0.0703941 16.1957 0.0178023 16.3922 0.00379513C16.5888 -0.010212 16.7861 0.0146399 16.973 0.0769309ZM7.05992 4.93975C7.34111 5.22103 7.49908 5.60248 7.49908 6.00021C7.49908 6.39794 7.34111 6.77939 7.05992 7.06067L3.62055 10.5L7.05992 13.9394C7.20318 14.0778 7.31745 14.2433 7.39606 14.4263C7.47467 14.6093 7.51605 14.8061 7.51778 15.0053C7.51951 15.2044 7.48156 15.402 7.40614 15.5863C7.33072 15.7706 7.21934 15.9381 7.07851 16.0789C6.93768 16.2198 6.7702 16.3311 6.58587 16.4066C6.40153 16.482 6.20402 16.5199 6.00485 16.5182C5.80569 16.5165 5.60887 16.4751 5.42587 16.3965C5.24287 16.3179 5.07736 16.2036 4.939 16.0603L0.439163 11.5605C0.157967 11.2792 0 10.8978 0 10.5C0 10.1023 0.157967 9.72087 0.439163 9.43958L4.939 4.93975C5.22028 4.65856 5.60173 4.50059 5.99946 4.50059C6.39719 4.50059 6.77864 4.65856 7.05992 4.93975ZM19.9384 4.93975C20.2197 4.65856 20.6012 4.50059 20.9989 4.50059C21.3966 4.50059 21.7781 4.65856 22.0594 4.93975L26.5592 9.43958C26.8404 9.72087 26.9984 10.1023 26.9984 10.5C26.9984 10.8978 26.8404 11.2792 26.5592 11.5605L22.0594 16.0603C21.921 16.2036 21.7555 16.3179 21.5725 16.3965C21.3895 16.4751 21.1927 16.5165 20.9935 16.5182C20.7943 16.5199 20.5968 16.482 20.4125 16.4066C20.2282 16.3311 20.0607 16.2198 19.9198 16.0789C19.779 15.9381 19.6676 15.7706 19.5922 15.5863C19.5168 15.402 19.4788 15.2044 19.4806 15.0053C19.4823 14.8061 19.5237 14.6093 19.6023 14.4263C19.6809 14.2433 19.7952 14.0778 19.9384 13.9394L23.3778 10.5L19.9384 7.06067C19.6572 6.77939 19.4993 6.39794 19.4993 6.00021C19.4993 5.60248 19.6572 5.22103 19.9384 4.93975Z" fill="#AAAAAA"/>
</svg>
