<svg width="28" height="27" viewBox="0 0 28 27" fill="none" xmlns="http://www.w3.org/2000/svg">
<path d="M17.572 24.75V23.6149C17.5767 23.3179 17.6978 23.0347 17.9093 22.8262C18.1208 22.6177 18.4056 22.5006 18.7026 22.5H18.787C20.398 22.4865 21.7817 21.3683 22.1102 19.8135L22.1215 19.755L22.7065 16.875L23.764 16.353C24.3321 16.074 24.6145 15.9334 24.6752 15.678C24.7371 15.4215 24.547 15.1718 24.1679 14.6711L22.0214 11.8496C21.8076 11.5684 21.7007 11.4289 21.6445 11.2804C21.5882 11.1319 21.5691 10.9204 21.5342 10.5008C21.1472 5.88038 17.2232 2.25 12.4386 2.25C7.39862 2.25 3.31262 6.27975 3.31262 11.25C3.31262 14.3438 4.8955 17.0719 7.30637 18.6919M7.30637 18.6919V24.75M7.30637 18.6919C8.01027 19.1678 8.77802 19.5416 9.58675 19.8023" stroke="white" stroke-width="1.7" stroke-linecap="round" stroke-linejoin="round"/>
<path d="M16.2501 10.125L17.2851 11.0171C17.7205 11.3918 17.9376 11.5796 17.9376 11.8125C17.9376 12.0454 17.7205 12.2333 17.2851 12.6079L16.2501 13.5M8.37512 10.125L7.34012 11.0171C6.90475 11.3918 6.68762 11.5796 6.68762 11.8125C6.68762 12.0454 6.90475 12.2333 7.34012 12.6079L8.37512 13.5M13.4376 9L11.1876 14.625" stroke="white" stroke-width="1.7" stroke-linecap="round" stroke-linejoin="round"/>
</svg>
