<svg width="23" height="27" viewBox="0 0 23 27" fill="none" xmlns="http://www.w3.org/2000/svg">
<path d="M21.2501 8.51527L13.7501 1.94027C13.0626 1.32532 12.1725 0.985352 11.2501 0.985352C10.3277 0.985352 9.43765 1.32532 8.75012 1.94027L1.25012 8.51527C0.853079 8.87036 0.536244 9.30596 0.320708 9.79307C0.105173 10.2802 -0.0041157 10.8076 0.000118493 11.3403V22.2653C0.000118493 23.2598 0.395207 24.2137 1.09847 24.9169C1.80173 25.6202 2.75556 26.0153 3.75012 26.0153H18.7501C19.7447 26.0153 20.6985 25.6202 21.4018 24.9169C22.105 24.2137 22.5001 23.2598 22.5001 22.2653V11.3278C22.5026 10.7972 22.3924 10.2722 22.177 9.78737C21.9615 9.30254 21.6456 8.86896 21.2501 8.51527V8.51527ZM13.7501 23.5153H8.75012V17.2653C8.75012 16.9337 8.88181 16.6158 9.11624 16.3814C9.35066 16.147 9.6686 16.0153 10.0001 16.0153H12.5001C12.8316 16.0153 13.1496 16.147 13.384 16.3814C13.6184 16.6158 13.7501 16.9337 13.7501 17.2653V23.5153ZM20.0001 22.2653C20.0001 22.5968 19.8684 22.9147 19.634 23.1492C19.3996 23.3836 19.0816 23.5153 18.7501 23.5153H16.2501V17.2653C16.2501 16.2707 15.855 15.3169 15.1518 14.6136C14.4485 13.9104 13.4947 13.5153 12.5001 13.5153H10.0001C9.00556 13.5153 8.05173 13.9104 7.34847 14.6136C6.64521 15.3169 6.25012 16.2707 6.25012 17.2653V23.5153H3.75012C3.4186 23.5153 3.10066 23.3836 2.86624 23.1492C2.63181 22.9147 2.50012 22.5968 2.50012 22.2653V11.3278C2.50034 11.1503 2.53836 10.9749 2.61164 10.8132C2.68492 10.6516 2.79178 10.5074 2.92512 10.3903L10.4251 3.82777C10.6532 3.62737 10.9465 3.51685 11.2501 3.51685C11.5538 3.51685 11.847 3.62737 12.0751 3.82777L19.5751 10.3903C19.7085 10.5074 19.8153 10.6516 19.8886 10.8132C19.9619 10.9749 19.9999 11.1503 20.0001 11.3278V22.2653Z" fill="white"/>
</svg>
