<svg width="63" height="60" viewBox="0 0 63 60" fill="none" xmlns="http://www.w3.org/2000/svg">
<g clip-path="url(#clip0_208_9)">
<path d="M63.0007 52.3803C63.0071 53.4348 62.7523 54.4785 62.2533 55.4421C61.7542 56.4057 61.0223 57.2672 60.1061 57.9696C59.1898 58.672 58.1101 59.1992 56.9386 59.5162C55.767 59.8333 54.5303 59.933 53.3105 59.8086C48.87 59.2446 45.6161 55.9274 45.7244 52.075V7.7842C45.6171 3.92772 48.8791 0.608704 53.3253 0.0507465C54.544 -0.0717717 55.7791 0.0292434 56.9489 0.34711C58.1187 0.664977 59.1966 1.19245 60.1112 1.89464C61.0258 2.59683 61.7563 3.45773 62.2545 4.4204C62.7526 5.38306 63.0069 6.42556 63.0007 7.47892V52.3803Z" fill="black"/>
<path d="M8.63814 45.0408C13.4089 45.0408 17.2763 48.361 17.2763 52.4565C17.2763 56.5521 13.4089 59.8722 8.63814 59.8722C3.86736 59.8722 0 56.5521 0 52.4567C0 48.3613 3.86736 45.0408 8.63814 45.0408ZM31.3669 22.5646C26.5737 22.7903 22.8545 26.242 22.966 30.3621V50.2815C22.966 55.6874 25.7367 58.9692 29.7963 59.6687C31.0549 59.8878 32.3545 59.8636 33.6008 59.5979C34.8472 59.3322 36.009 58.8317 37.002 58.1326C37.9951 57.4336 38.7944 56.5535 39.342 55.5563C39.8896 54.5591 40.1719 53.4698 40.1682 52.3673V30.0188C40.1703 29.0308 39.9433 28.0523 39.5003 27.1405C39.0572 26.2286 38.4071 25.4016 37.5878 24.7078C36.7685 24.0139 35.7965 23.4671 34.7284 23.0991C33.6603 22.7312 32.5176 22.5494 31.3669 22.5646Z" fill="#51B3DA"/>
</g>
<defs>
<clipPath id="clip0_208_9">
<rect width="63" height="60" fill="white"/>
</clipPath>
</defs>
</svg>
