<svg width="217" height="92" viewBox="0 0 217 92" fill="none" xmlns="http://www.w3.org/2000/svg">
<g clip-path="url(#clip0_208_8)">
<path d="M63.0007 68.3803C63.0071 69.4348 62.7523 70.4785 62.2533 71.4421C61.7543 72.4057 61.0224 73.2672 60.1061 73.9696C59.1898 74.672 58.1102 75.1992 56.9386 75.5162C55.767 75.8333 54.5304 75.933 53.3106 75.8086C48.87 75.2446 45.6162 71.9274 45.7245 68.075V23.7842C45.6172 19.9277 48.8791 16.6087 53.3253 16.0507C54.544 15.9282 55.7791 16.0292 56.9489 16.3471C58.1187 16.665 59.1966 17.1925 60.1112 17.8946C61.0259 18.5968 61.7564 19.4577 62.2545 20.4204C62.7526 21.3831 63.007 22.4256 63.0007 23.4789V68.3803Z" fill="white"/>
<path d="M8.63814 61.0408C13.4089 61.0408 17.2763 64.361 17.2763 68.4565C17.2763 72.5521 13.4089 75.8722 8.63814 75.8722C3.86736 75.8722 0 72.5521 0 68.4567C0 64.3613 3.86736 61.0408 8.63814 61.0408ZM31.3669 38.5646C26.5737 38.7903 22.8545 42.242 22.966 46.3621V66.2815C22.966 71.6874 25.7367 74.9692 29.7963 75.6687C31.0549 75.8878 32.3545 75.8636 33.6008 75.5979C34.8472 75.3322 36.009 74.8317 37.002 74.1326C37.9951 73.4336 38.7944 72.5535 39.342 71.5563C39.8896 70.5591 40.1719 69.4698 40.1682 68.3673V46.0188C40.1703 45.0308 39.9433 44.0523 39.5003 43.1405C39.0572 42.2286 38.4071 41.4016 37.5878 40.7078C36.7685 40.0139 35.7965 39.4671 34.7284 39.0991C33.6603 38.7312 32.5176 38.5494 31.3669 38.5646Z" fill="#51B3DA"/>
</g>
<mask id="path-3-outside-1_208_8" maskUnits="userSpaceOnUse" x="84" y="18" width="126" height="49" fill="black">
<rect fill="white" x="84" y="18" width="126" height="49"/>
<path d="M86.1 59L98.585 19.4H108.293L120.778 59H113.958L102.628 23.47H104.113L92.92 59H86.1ZM93.0575 50.42V44.2325H113.848V50.42H93.0575ZM162.022 65.2425V59H131.799V19.4H138.427V53.115H157.622V20.3075H164.249V53.115H168.649V65.2425H162.022ZM179.099 59V19.4H195.462C195.847 19.4 196.342 19.4183 196.947 19.455C197.552 19.4733 198.111 19.5283 198.624 19.62C200.916 19.9683 202.804 20.7292 204.289 21.9025C205.793 23.0758 206.902 24.5608 207.617 26.3575C208.35 28.1358 208.717 30.1158 208.717 32.2975C208.717 34.4608 208.35 36.4408 207.617 38.2375C206.884 40.0158 205.765 41.4917 204.262 42.665C202.777 43.8383 200.898 44.5992 198.624 44.9475C198.111 45.0208 197.543 45.0758 196.919 45.1125C196.314 45.1492 195.829 45.1675 195.462 45.1675H185.727V59H179.099ZM185.727 38.98H195.187C195.554 38.98 195.966 38.9617 196.424 38.925C196.883 38.8883 197.304 38.815 197.689 38.705C198.789 38.43 199.651 37.9442 200.274 37.2475C200.916 36.5508 201.365 35.7625 201.622 34.8825C201.897 34.0025 202.034 33.1408 202.034 32.2975C202.034 31.4542 201.897 30.5925 201.622 29.7125C201.365 28.8142 200.916 28.0167 200.274 27.32C199.651 26.6233 198.789 26.1375 197.689 25.8625C197.304 25.7525 196.883 25.6883 196.424 25.67C195.966 25.6333 195.554 25.615 195.187 25.615H185.727V38.98Z"/>
</mask>
<path d="M86.1 59L98.585 19.4H108.293L120.778 59H113.958L102.628 23.47H104.113L92.92 59H86.1ZM93.0575 50.42V44.2325H113.848V50.42H93.0575ZM162.022 65.2425V59H131.799V19.4H138.427V53.115H157.622V20.3075H164.249V53.115H168.649V65.2425H162.022ZM179.099 59V19.4H195.462C195.847 19.4 196.342 19.4183 196.947 19.455C197.552 19.4733 198.111 19.5283 198.624 19.62C200.916 19.9683 202.804 20.7292 204.289 21.9025C205.793 23.0758 206.902 24.5608 207.617 26.3575C208.35 28.1358 208.717 30.1158 208.717 32.2975C208.717 34.4608 208.35 36.4408 207.617 38.2375C206.884 40.0158 205.765 41.4917 204.262 42.665C202.777 43.8383 200.898 44.5992 198.624 44.9475C198.111 45.0208 197.543 45.0758 196.919 45.1125C196.314 45.1492 195.829 45.1675 195.462 45.1675H185.727V59H179.099ZM185.727 38.98H195.187C195.554 38.98 195.966 38.9617 196.424 38.925C196.883 38.8883 197.304 38.815 197.689 38.705C198.789 38.43 199.651 37.9442 200.274 37.2475C200.916 36.5508 201.365 35.7625 201.622 34.8825C201.897 34.0025 202.034 33.1408 202.034 32.2975C202.034 31.4542 201.897 30.5925 201.622 29.7125C201.365 28.8142 200.916 28.0167 200.274 27.32C199.651 26.6233 198.789 26.1375 197.689 25.8625C197.304 25.7525 196.883 25.6883 196.424 25.67C195.966 25.6333 195.554 25.615 195.187 25.615H185.727V38.98Z" fill="white"/>
<path d="M86.1 59L85.1463 58.6993L84.7362 60H86.1V59ZM98.585 19.4V18.4H97.8518L97.6313 19.0993L98.585 19.4ZM108.293 19.4L109.246 19.0993L109.026 18.4H108.293V19.4ZM120.778 59V60H122.141L121.731 58.6993L120.778 59ZM113.958 59L113.005 59.3038L113.227 60H113.958V59ZM102.628 23.47V22.47H101.259L101.675 23.7738L102.628 23.47ZM104.113 23.47L105.066 23.7705L105.476 22.47H104.113V23.47ZM92.92 59V60H93.6534L93.8738 59.3005L92.92 59ZM93.0575 50.42H92.0575V51.42H93.0575V50.42ZM93.0575 44.2325V43.2325H92.0575V44.2325H93.0575ZM113.848 44.2325H114.848V43.2325H113.848V44.2325ZM113.848 50.42V51.42H114.848V50.42H113.848ZM86.1 59L87.0537 59.3007L99.5387 19.7007L98.585 19.4L97.6313 19.0993L85.1463 58.6993L86.1 59ZM98.585 19.4V20.4H108.293V19.4V18.4H98.585V19.4ZM108.293 19.4L107.339 19.7007L119.824 59.3007L120.778 59L121.731 58.6993L109.246 19.0993L108.293 19.4ZM120.778 59V58H113.958V59V60H120.778V59ZM113.958 59L114.91 58.6962L103.58 23.1662L102.628 23.47L101.675 23.7738L113.005 59.3038L113.958 59ZM102.628 23.47V24.47H104.113V23.47V22.47H102.628V23.47ZM104.113 23.47L103.159 23.1695L91.9662 58.6995L92.92 59L93.8738 59.3005L105.066 23.7705L104.113 23.47ZM92.92 59V58H86.1V59V60H92.92V59ZM93.0575 50.42H94.0575V44.2325H93.0575H92.0575V50.42H93.0575ZM93.0575 44.2325V45.2325H113.848V44.2325V43.2325H93.0575V44.2325ZM113.848 44.2325H112.848V50.42H113.848H114.848V44.2325H113.848ZM113.848 50.42V49.42H93.0575V50.42V51.42H113.848V50.42ZM162.022 65.2425H161.022V66.2425H162.022V65.2425ZM162.022 59H163.022V58H162.022V59ZM131.799 59H130.799V60H131.799V59ZM131.799 19.4V18.4H130.799V19.4H131.799ZM138.427 19.4H139.427V18.4H138.427V19.4ZM138.427 53.115H137.427V54.115H138.427V53.115ZM157.622 53.115V54.115H158.622V53.115H157.622ZM157.622 20.3075V19.3075H156.622V20.3075H157.622ZM164.249 20.3075H165.249V19.3075H164.249V20.3075ZM164.249 53.115H163.249V54.115H164.249V53.115ZM168.649 53.115H169.649V52.115H168.649V53.115ZM168.649 65.2425V66.2425H169.649V65.2425H168.649ZM162.022 65.2425H163.022V59H162.022H161.022V65.2425H162.022ZM162.022 59V58H131.799V59V60H162.022V59ZM131.799 59H132.799V19.4H131.799H130.799V59H131.799ZM131.799 19.4V20.4H138.427V19.4V18.4H131.799V19.4ZM138.427 19.4H137.427V53.115H138.427H139.427V19.4H138.427ZM138.427 53.115V54.115H157.622V53.115V52.115H138.427V53.115ZM157.622 53.115H158.622V20.3075H157.622H156.622V53.115H157.622ZM157.622 20.3075V21.3075H164.249V20.3075V19.3075H157.622V20.3075ZM164.249 20.3075H163.249V53.115H164.249H165.249V20.3075H164.249ZM164.249 53.115V54.115H168.649V53.115V52.115H164.249V53.115ZM168.649 53.115H167.649V65.2425H168.649H169.649V53.115H168.649ZM168.649 65.2425V64.2425H162.022V65.2425V66.2425H168.649V65.2425ZM179.099 59H178.099V60H179.099V59ZM179.099 19.4V18.4H178.099V19.4H179.099ZM196.947 19.455L196.886 20.4532L196.902 20.4541L196.917 20.4545L196.947 19.455ZM198.624 19.62L198.449 20.6044L198.461 20.6067L198.474 20.6086L198.624 19.62ZM204.289 21.9025L203.669 22.6871L203.674 22.6908L204.289 21.9025ZM207.617 26.3575L206.688 26.7273L206.692 26.7387L207.617 26.3575ZM207.617 38.2375L208.541 38.6187L208.543 38.6154L207.617 38.2375ZM204.262 42.665L203.647 41.8767L203.642 41.8804L204.262 42.665ZM198.624 44.9475L198.766 45.9375L198.776 45.936L198.624 44.9475ZM196.919 45.1125L196.861 44.1142L196.859 44.1143L196.919 45.1125ZM185.727 45.1675V44.1675H184.727V45.1675H185.727ZM185.727 59V60H186.727V59H185.727ZM185.727 38.98H184.727V39.98H185.727V38.98ZM196.424 38.925L196.504 39.9218L196.504 39.9218L196.424 38.925ZM197.689 38.705L197.447 37.7349L197.431 37.7389L197.415 37.7435L197.689 38.705ZM200.274 37.2475L199.539 36.57L199.534 36.5753L199.529 36.5807L200.274 37.2475ZM201.622 34.8825L200.667 34.5842L200.665 34.5933L200.662 34.6025L201.622 34.8825ZM201.622 29.7125L200.66 29.9872L200.664 29.999L200.667 30.0108L201.622 29.7125ZM200.274 27.32L199.529 27.9868L199.534 27.9922L199.539 27.9975L200.274 27.32ZM197.689 25.8625L197.415 26.824L197.431 26.8286L197.447 26.8326L197.689 25.8625ZM196.424 25.67L196.345 26.6668L196.365 26.6684L196.384 26.6692L196.424 25.67ZM185.727 25.615V24.615H184.727V25.615H185.727ZM179.099 59H180.099V19.4H179.099H178.099V59H179.099ZM179.099 19.4V20.4H195.462V19.4V18.4H179.099V19.4ZM195.462 19.4V20.4C195.819 20.4 196.292 20.4171 196.886 20.4532L196.947 19.455L197.007 18.4568C196.392 18.4195 195.875 18.4 195.462 18.4V19.4ZM196.947 19.455L196.917 20.4545C197.48 20.4716 197.99 20.5226 198.449 20.6044L198.624 19.62L198.8 18.6356C198.232 18.5341 197.623 18.475 196.977 18.4555L196.947 19.455ZM198.624 19.62L198.474 20.6086C200.633 20.9367 202.348 21.6431 203.669 22.6871L204.289 21.9025L204.909 21.1179C203.261 19.8152 201.2 18.9999 198.775 18.6314L198.624 19.62ZM204.289 21.9025L203.674 22.6908C205.036 23.7534 206.037 25.0931 206.688 26.7273L207.617 26.3575L208.546 25.9877C207.766 24.0286 206.55 22.3983 204.905 21.1142L204.289 21.9025ZM207.617 26.3575L206.692 26.7387C207.37 28.381 207.717 30.2292 207.717 32.2975H208.717H209.717C209.717 30.0025 209.331 27.8907 208.541 25.9763L207.617 26.3575ZM208.717 32.2975H207.717C207.717 34.3461 207.37 36.1959 206.691 37.8596L207.617 38.2375L208.543 38.6154C209.33 36.6857 209.717 34.5755 209.717 32.2975H208.717ZM207.617 38.2375L206.692 37.8563C206.025 39.4759 205.012 40.8109 203.647 41.8767L204.262 42.665L204.877 43.4533C206.518 42.1724 207.743 40.5558 208.541 38.6187L207.617 38.2375ZM204.262 42.665L203.642 41.8804C202.319 42.9255 200.612 43.6313 198.473 43.959L198.624 44.9475L198.776 45.936C201.184 45.567 203.235 44.7512 204.882 43.4496L204.262 42.665ZM198.624 44.9475L198.483 43.9575C198.002 44.0263 197.462 44.0789 196.861 44.1142L196.919 45.1125L196.978 46.1108C197.624 46.0728 198.22 46.0154 198.766 45.9374L198.624 44.9475ZM196.919 45.1125L196.859 44.1143C196.263 44.1505 195.8 44.1675 195.462 44.1675V45.1675V46.1675C195.857 46.1675 196.366 46.1479 196.98 46.1107L196.919 45.1125ZM195.462 45.1675V44.1675H185.727V45.1675V46.1675H195.462V45.1675ZM185.727 45.1675H184.727V59H185.727H186.727V45.1675H185.727ZM185.727 59V58H179.099V59V60H185.727V59ZM185.727 38.98V39.98H195.187V38.98V37.98H185.727V38.98ZM195.187 38.98V39.98C195.586 39.98 196.026 39.9601 196.504 39.9218L196.424 38.925L196.345 37.9282C195.907 37.9632 195.521 37.98 195.187 37.98V38.98ZM196.424 38.925L196.504 39.9218C197.019 39.8806 197.507 39.7972 197.964 39.6665L197.689 38.705L197.415 37.7435C197.102 37.8328 196.746 37.896 196.345 37.9282L196.424 38.925ZM197.689 38.705L197.932 39.6751C199.184 39.3621 200.237 38.7893 201.02 37.9143L200.274 37.2475L199.529 36.5807C199.065 37.099 198.395 37.4979 197.447 37.7349L197.689 38.705ZM200.274 37.2475L201.01 37.925C201.753 37.1188 202.281 36.1955 202.582 35.1625L201.622 34.8825L200.662 34.6025C200.45 35.3295 200.08 35.9829 199.539 36.57L200.274 37.2475ZM201.622 34.8825L202.576 35.1808C202.879 34.2132 203.034 33.251 203.034 32.2975H202.034H201.034C201.034 33.0307 200.915 33.7918 200.667 34.5842L201.622 34.8825ZM202.034 32.2975H203.034C203.034 31.344 202.879 30.3818 202.576 29.4142L201.622 29.7125L200.667 30.0108C200.915 30.8032 201.034 31.5643 201.034 32.2975H202.034ZM201.622 29.7125L202.583 29.4378C202.283 28.3873 201.756 27.4523 201.01 26.6425L200.274 27.32L199.539 27.9975C200.076 28.581 200.447 29.2411 200.66 29.9872L201.622 29.7125ZM200.274 27.32L201.02 26.6532C200.237 25.7782 199.184 25.2054 197.932 24.8924L197.689 25.8625L197.447 26.8326C198.395 27.0696 199.065 27.4685 199.529 27.9868L200.274 27.32ZM197.689 25.8625L197.964 24.901C197.493 24.7662 196.991 24.6919 196.464 24.6708L196.424 25.67L196.384 26.6692C196.775 26.6848 197.116 26.7388 197.415 26.824L197.689 25.8625ZM196.424 25.67L196.504 24.6732C196.026 24.6349 195.586 24.615 195.187 24.615V25.615V26.615C195.521 26.615 195.907 26.6318 196.345 26.6668L196.424 25.67ZM195.187 25.615V24.615H185.727V25.615V26.615H195.187V25.615ZM185.727 25.615H184.727V38.98H185.727H186.727V25.615H185.727Z" fill="white" mask="url(#path-3-outside-1_208_8)"/>
<defs>
<clipPath id="clip0_208_8">
<rect width="63" height="60" fill="white" transform="translate(0 16)"/>
</clipPath>
</defs>
</svg>
