<svg width="17" height="17" viewBox="0 0 17 17" fill="none" xmlns="http://www.w3.org/2000/svg">
<g clip-path="url(#clip0_113_159)">
<path d="M15.7833 12.9519H16.5961V13.7594H15.7833V12.9519ZM15.7833 9.71125H16.5961V10.5241H15.7833V9.71125ZM15.7833 6.47594H16.5961V7.28344H15.7833V6.47594ZM15.7833 3.23531H16.5961V4.04812H15.7833V3.23531ZM14.9758 12.1391H15.7833V12.9519H14.9758V12.1391ZM14.9758 10.5241H15.7833V11.3316H14.9758V10.5241ZM14.9758 8.90375H15.7833V9.71125H14.9758V8.90375ZM14.9758 7.28344H15.7833V8.09094H14.9758V7.28344ZM14.9758 5.66313H15.7833V6.47594H14.9758V5.66313ZM14.9758 4.04812H15.7833V4.85563H14.9758V4.04812ZM14.1629 11.3316H14.9758V12.1391H14.1629V11.3316ZM14.1629 8.09094H14.9758V8.90375H14.1629V8.09094ZM14.1629 4.85563H14.9758V5.66313H14.1629V4.85563ZM4.4517 17H12.5479V16.1872H13.3554V0.8075H12.5479V0H4.4517V0.8075H3.63889V16.1872H4.4517V17ZM8.49982 0.8075H10.1148V1.615H8.49982V0.8075ZM6.87951 0.8075H7.68701V1.615H6.87951V0.8075ZM4.4517 1.615H6.07201V2.42781H10.9276V1.615H12.5479V15.3797H4.4517V1.615Z" fill="#ABC3CC"/>
<path d="M10.9276 10.524H11.7351V11.3315H10.9276V10.524ZM10.1148 8.09091H10.9276V8.90372H10.1148V8.09091ZM10.1148 6.47591H10.9276V7.28341H10.1148V6.47591ZM9.30731 11.3315H10.9276V12.139H9.30731V11.3315ZM9.30731 7.28341H10.1148V8.09091H9.30731V7.28341ZM7.687 10.524H9.30731V11.3315H7.687V10.524ZM6.8795 7.28341H7.687V8.09091H6.8795V7.28341ZM6.072 11.3315H7.687V12.139H6.072V11.3315ZM6.072 8.09091H6.8795V8.90372H6.072V8.09091ZM6.072 6.47591H6.8795V7.28341H6.072V6.47591ZM5.25918 10.524H6.072V11.3315H5.25918V10.524ZM2.02387 11.3315H2.83137V12.139H2.02387V11.3315ZM2.02387 8.09091H2.83137V8.90372H2.02387V8.09091ZM2.02387 4.8556H2.83137V5.6631H2.02387V4.8556ZM1.21106 12.139H2.02387V12.9518H1.21106V12.139ZM1.21106 10.524H2.02387V11.3315H1.21106V10.524ZM1.21106 8.90372H2.02387V9.71122H1.21106V8.90372ZM1.21106 7.28341H2.02387V8.09091H1.21106V7.28341ZM1.21106 5.6631H2.02387V6.47591H1.21106V5.6631ZM1.21106 4.0481H2.02387V4.8556H1.21106V4.0481Z" fill="#ABC3CC"/>
<path d="M0.403564 12.9519H1.21106V13.7594H0.403564V12.9519ZM0.403564 9.71129H1.21106V10.5241H0.403564V9.71129ZM0.403564 6.47598H1.21106V7.28348H0.403564V6.47598ZM0.403564 3.23535H1.21106V4.04816H0.403564V3.23535Z" fill="#ABC3CC"/>
</g>
<defs>
<clipPath id="clip0_113_159">
<rect width="17" height="17" fill="white"/>
</clipPath>
</defs>
</svg>
