<svg width="30" height="30" viewBox="0 0 30 30" fill="none" xmlns="http://www.w3.org/2000/svg">
<path fill-rule="evenodd" clip-rule="evenodd" d="M21.4809 8.69164C21.6868 8.60496 21.9122 8.57507 22.1336 8.60507C22.355 8.63507 22.5643 8.72386 22.7398 8.86221C22.9152 9.00056 23.0504 9.1834 23.1312 9.39171C23.212 9.60001 23.2355 9.82617 23.1992 10.0466L21.3092 21.5108C21.1259 22.6166 19.9125 23.2508 18.8984 22.7C18.05 22.2391 16.79 21.5291 15.6567 20.7883C15.09 20.4175 13.3542 19.23 13.5675 18.385C13.7509 17.6625 16.6675 14.9475 18.3342 13.3333C18.9884 12.6991 18.69 12.3333 17.9175 12.9166C15.9992 14.365 12.9192 16.5675 11.9009 17.1875C11.0025 17.7341 10.5342 17.8275 9.9742 17.7341C8.95254 17.5641 8.00504 17.3008 7.2317 16.98C6.1867 16.5466 6.23754 15.11 7.23087 14.6916L21.4809 8.69164Z" fill="white"/>
</svg>
