<svg width="17" height="17" viewBox="0 0 17 17" fill="none" xmlns="http://www.w3.org/2000/svg">
<g clip-path="url(#clip0_113_161)">
<path d="M12.0415 3.54183V2.12516H11.3331V1.41683H9.91647V0.708496H7.08314V1.41683H5.66647V2.12516H4.95814V3.54183H4.24981V6.37516H4.95814V7.79183H5.66647V8.50016H7.08314V9.2085H9.91647V8.50016H11.3331V7.79183H12.0415V6.37516H12.7498V3.54183H12.0415ZM10.6248 6.37516V7.0835H9.91647V7.79183H7.08314V7.0835H6.37481V6.37516H5.66647V3.54183H6.37481V2.8335H7.08314V2.12516H9.91647V2.8335H10.6248V3.54183H11.3331V6.37516H10.6248ZM14.8748 13.4585V12.7502H14.1665V12.0418H13.4581V11.3335H12.0415V10.6252H4.95814V11.3335H3.54147V12.0418H2.83314V12.7502H2.12481V13.4585H1.41647V15.5835H2.12481V16.2918H14.8748V15.5835H15.5831V13.4585H14.8748ZM3.54147 13.4585V12.7502H4.95814V12.0418H12.0415V12.7502H13.4581V13.4585H14.1665V14.8752H2.83314V13.4585H3.54147Z" fill="#ABC3CC"/>
</g>
<defs>
<clipPath id="clip0_113_161">
<rect width="17" height="17" fill="white" transform="translate(-0.000183105 0.000244141)"/>
</clipPath>
</defs>
</svg>
