<svg width="30" height="30" viewBox="0 0 30 30" fill="none" xmlns="http://www.w3.org/2000/svg">
<path fill-rule="evenodd" clip-rule="evenodd" d="M15.06 21.54H16.26C16.26 21.54 16.62 21.48 16.8 21.3C16.98 21.12 16.98 20.76 16.98 20.76C16.98 20.76 16.98 19.2 17.7 18.96C18.42 18.72 19.38 20.52 20.34 21.18C21.06 21.72 21.6 21.6 21.6 21.6L24.24 21.54C24.24 21.54 25.62 21.48 24.96 20.34C24.9 20.28 24.6 19.56 22.98 18.06C21.3 16.5 21.54 16.8 23.52 14.1C24.72 12.48 25.2 11.52 25.08 11.04C24.96 10.62 24.06 10.74 24.06 10.74H21.06C21.06 10.74 20.82 10.68 20.7 10.8C20.52 10.92 20.46 11.1 20.46 11.1C20.46 11.1 19.98 12.36 19.38 13.44C18.06 15.66 17.52 15.78 17.34 15.66C16.86 15.36 16.98 14.34 16.98 13.68C16.98 11.52 17.34 10.62 16.32 10.38C16.02 10.32 15.78 10.26 14.94 10.26C13.86 10.26 12.96 10.26 12.48 10.5C12.12 10.68 11.88 11.04 12.06 11.04C12.24 11.04 12.72 11.16 12.96 11.46C13.2 12 13.2 12.9 13.2 12.9C13.2 12.9 13.38 15.48 12.78 15.78C12.36 16.02 11.82 15.54 10.62 13.5C10.02 12.48 9.54001 11.28 9.54001 11.28C9.54001 11.28 9.48001 11.04 9.30001 10.92C9.12001 10.8 8.82001 10.74 8.82001 10.74H6.00001C6.00001 10.74 5.58001 10.74 5.40001 10.92C5.28001 11.1 5.40001 11.4 5.40001 11.4C5.40001 11.4 7.62001 16.56 10.14 19.2C12.48 21.72 15.06 21.54 15.06 21.54Z" fill="white"/>
</svg>
